<svg version="1.1" id="Layer_1" xmlns="http://www.w3.org/2000/svg" xmlns:xlink="http://www.w3.org/1999/xlink" x="0px" y="0px"
	 width="100%" viewBox="0 0 296 298" enable-background="new 0 0 296 298" xml:space="preserve">
<path fill="#FFFFFF" opacity="1.000000" stroke="none" 
	d="
M193.000000,299.000000 
	C128.666672,299.000000 64.833359,299.000000 1.000026,299.000000 
	C1.000017,199.666702 1.000017,100.333389 1.000009,1.000066 
	C99.666618,1.000044 198.333237,1.000044 296.999878,1.000022 
	C296.999939,100.333275 296.999939,199.666550 296.999969,298.999908 
	C262.500000,299.000000 228.000000,299.000000 193.000000,299.000000 
M172.602615,41.964283 
	C166.799927,38.544193 161.138092,34.843475 155.131836,31.829008 
	C152.360596,30.438156 148.175293,28.878857 145.905258,29.992672 
	C136.126099,34.790920 126.853020,40.612022 117.333794,45.950356 
	C92.544052,59.852310 67.750351,73.747803 42.890442,87.523560 
	C37.347988,90.594818 34.128189,95.012978 34.051117,101.273079 
	C33.884941,114.770523 34.027164,128.271530 33.984837,141.770874 
	C33.970646,146.296722 36.052368,149.743118 39.739464,151.913406 
	C49.503410,157.660568 59.394775,163.194565 69.297218,168.702301 
	C81.732307,175.618683 94.301704,182.296082 106.678436,189.314178 
	C119.129173,196.374222 131.392715,203.763641 143.781921,210.933334 
	C149.800354,214.416214 158.985504,209.226349 158.998672,202.429764 
	C159.006088,198.596588 158.789017,194.748291 159.061874,190.934616 
	C159.313370,187.419662 157.623550,185.540451 154.805481,183.957870 
	C130.012482,170.034622 105.302475,155.963043 80.470726,142.109558 
	C61.700336,131.637665 61.637054,131.751160 61.999596,114.463135 
	C62.003090,114.296547 61.937641,114.094193 62.009407,113.968506 
	C63.117477,112.027924 63.768028,109.311241 65.445137,108.297928 
	C73.488594,103.438004 81.851028,99.110077 90.022644,94.457039 
	C98.075150,89.871841 105.993439,85.050949 114.045952,80.465782 
	C123.045937,75.341110 132.427826,70.818260 141.065414,65.152237 
	C146.127670,61.831539 150.120422,62.647995 154.659897,65.155380 
	C156.607971,66.231407 158.649384,67.139473 160.589386,68.228928 
	C181.970322,80.235794 203.252930,92.421783 224.761597,104.194931 
	C231.794220,108.044365 234.422226,112.773361 234.252335,121.143127 
	C233.620041,152.295792 233.976715,183.469040 234.054169,214.634338 
	C234.059143,216.640320 234.620850,220.271439 235.301697,220.363968 
	C238.055923,220.738220 241.188187,220.594543 243.747925,219.565216 
	C246.978302,218.266235 249.628159,215.578842 252.809219,214.090500 
	C259.570831,210.926910 262.176910,205.979660 262.115173,198.465668 
	C261.846832,165.802429 261.969635,133.135681 262.037689,100.470390 
	C262.046387,96.289047 260.457367,92.864426 257.167542,90.758339 
	C249.050919,85.562180 240.741898,80.655312 232.391800,75.837402 
	C212.751907,64.505402 193.042831,53.293304 172.602615,41.964283 
M145.174225,271.706512 
	C147.364578,271.373657 149.785568,271.522766 151.697388,270.607880 
	C155.711044,268.687164 159.452072,266.198486 163.313934,263.958405 
	C177.066467,255.981186 190.794434,247.960892 204.597076,240.071320 
	C208.140930,238.045670 210.156937,235.714386 210.091080,231.203171 
	C209.591232,196.967148 209.220627,162.727905 209.126480,128.488800 
	C209.112991,123.582626 207.215057,121.101814 203.205872,118.944038 
	C195.429718,114.758850 187.881668,110.150360 180.231216,105.730911 
	C170.628204,100.183525 161.074142,94.546074 151.350449,89.218536 
	C149.836029,88.388802 147.127335,88.259216 145.657913,89.062531 
	C134.539825,95.140602 123.603249,101.549973 112.588531,107.818153 
	C107.707115,110.596046 102.738831,113.222321 97.877281,116.033791 
	C92.643524,119.060509 92.457535,123.641945 97.432617,126.926964 
	C101.995720,129.939957 106.463997,133.200500 111.353020,135.570084 
	C113.643257,136.680099 117.260979,136.901581 119.520737,135.869598 
	C125.753822,133.023056 131.413910,128.923904 137.642120,126.063881 
	C141.703842,124.198723 145.248825,119.184616 150.577423,122.063454 
	C160.599487,127.478004 170.471741,133.175217 180.293137,138.947449 
	C181.263336,139.517639 181.875412,141.403000 181.932419,142.709412 
	C182.386627,153.119980 182.830231,163.536118 182.959229,173.954498 
	C183.126312,187.448059 183.273392,200.955215 182.782776,214.432999 
	C182.677246,217.332260 180.514557,221.253342 178.089844,222.770294 
	C170.120819,227.755981 161.402191,231.535065 153.367523,236.427948 
	C149.463242,238.805527 146.316391,238.273041 142.910889,236.398056 
	C136.022537,232.605499 129.191315,228.707489 122.374908,224.786285 
	C104.145279,214.299576 85.956833,203.741089 67.704926,193.293427 
	C62.680141,190.417175 57.622677,191.878479 53.640705,195.078918 
	C51.586254,196.730164 50.847683,200.328461 50.112427,203.200104 
	C49.637917,205.053391 50.493362,207.205505 50.322330,209.186523 
	C49.914051,213.915421 51.442680,217.721390 55.541782,220.083405 
	C64.593918,225.299515 73.811829,230.227615 82.872154,235.429871 
	C103.495033,247.271164 124.063721,259.206848 145.174225,271.706512 
z"/>
<path fill="#000000" opacity="1.000000" stroke="none" 
	d="
M172.982178,41.998489 
	C193.042831,53.293304 212.751907,64.505402 232.391800,75.837402 
	C240.741898,80.655312 249.050919,85.562180 257.167542,90.758339 
	C260.457367,92.864426 262.046387,96.289047 262.037689,100.470390 
	C261.969635,133.135681 261.846832,165.802429 262.115173,198.465668 
	C262.176910,205.979660 259.570831,210.926910 252.809219,214.090500 
	C249.628159,215.578842 246.978302,218.266235 243.747925,219.565216 
	C241.188187,220.594543 238.055923,220.738220 235.301697,220.363968 
	C234.620850,220.271439 234.059143,216.640320 234.054169,214.634338 
	C233.976715,183.469040 233.620041,152.295792 234.252335,121.143127 
	C234.422226,112.773361 231.794220,108.044365 224.761597,104.194931 
	C203.252930,92.421783 181.970322,80.235794 160.589386,68.228928 
	C158.649384,67.139473 156.607971,66.231407 154.659897,65.155380 
	C150.120422,62.647995 146.127670,61.831539 141.065414,65.152237 
	C132.427826,70.818260 123.045937,75.341110 114.045952,80.465782 
	C105.993439,85.050949 98.075150,89.871841 90.022644,94.457039 
	C81.851028,99.110077 73.488594,103.438004 65.445137,108.297928 
	C63.768028,109.311241 63.117477,112.027924 62.009407,113.968506 
	C61.937641,114.094193 62.003090,114.296547 61.999596,114.463135 
	C61.637054,131.751160 61.700336,131.637665 80.470726,142.109558 
	C105.302475,155.963043 130.012482,170.034622 154.805481,183.957870 
	C157.623550,185.540451 159.313370,187.419662 159.061874,190.934616 
	C158.789017,194.748291 159.006088,198.596588 158.998672,202.429764 
	C158.985504,209.226349 149.800354,214.416214 143.781921,210.933334 
	C131.392715,203.763641 119.129173,196.374222 106.678436,189.314178 
	C94.301704,182.296082 81.732307,175.618683 69.297218,168.702301 
	C59.394775,163.194565 49.503410,157.660568 39.739464,151.913406 
	C36.052368,149.743118 33.970646,146.296722 33.984837,141.770874 
	C34.027164,128.271530 33.884941,114.770523 34.051117,101.273079 
	C34.128189,95.012978 37.347988,90.594818 42.890442,87.523560 
	C67.750351,73.747803 92.544052,59.852310 117.333794,45.950356 
	C126.853020,40.612022 136.126099,34.790920 145.905258,29.992672 
	C148.175293,28.878857 152.360596,30.438156 155.131836,31.829008 
	C161.138092,34.843475 166.799927,38.544193 172.982178,41.998489 
z"/>
<path fill="#000000" opacity="1.000000" stroke="none" 
	d="
M144.914337,271.405334 
	C124.063721,259.206848 103.495033,247.271164 82.872154,235.429871 
	C73.811829,230.227615 64.593918,225.299515 55.541782,220.083405 
	C51.442680,217.721390 49.914051,213.915421 50.322330,209.186523 
	C50.493362,207.205505 49.637917,205.053391 50.112427,203.200104 
	C50.847683,200.328461 51.586254,196.730164 53.640705,195.078918 
	C57.622677,191.878479 62.680141,190.417175 67.704926,193.293427 
	C85.956833,203.741089 104.145279,214.299576 122.374908,224.786285 
	C129.191315,228.707489 136.022537,232.605499 142.910889,236.398056 
	C146.316391,238.273041 149.463242,238.805527 153.367523,236.427948 
	C161.402191,231.535065 170.120819,227.755981 178.089844,222.770294 
	C180.514557,221.253342 182.677246,217.332260 182.782776,214.432999 
	C183.273392,200.955215 183.126312,187.448059 182.959229,173.954498 
	C182.830231,163.536118 182.386627,153.119980 181.932419,142.709412 
	C181.875412,141.403000 181.263336,139.517639 180.293137,138.947449 
	C170.471741,133.175217 160.599487,127.478004 150.577423,122.063454 
	C145.248825,119.184616 141.703842,124.198723 137.642120,126.063881 
	C131.413910,128.923904 125.753822,133.023056 119.520737,135.869598 
	C117.260979,136.901581 113.643257,136.680099 111.353020,135.570084 
	C106.463997,133.200500 101.995720,129.939957 97.432617,126.926964 
	C92.457535,123.641945 92.643524,119.060509 97.877281,116.033791 
	C102.738831,113.222321 107.707115,110.596046 112.588531,107.818153 
	C123.603249,101.549973 134.539825,95.140602 145.657913,89.062531 
	C147.127335,88.259216 149.836029,88.388802 151.350449,89.218536 
	C161.074142,94.546074 170.628204,100.183525 180.231216,105.730911 
	C187.881668,110.150360 195.429718,114.758850 203.205872,118.944038 
	C207.215057,121.101814 209.112991,123.582626 209.126480,128.488800 
	C209.220627,162.727905 209.591232,196.967148 210.091080,231.203171 
	C210.156937,235.714386 208.140930,238.045670 204.597076,240.071320 
	C190.794434,247.960892 177.066467,255.981186 163.313934,263.958405 
	C159.452072,266.198486 155.711044,268.687164 151.697388,270.607880 
	C149.785568,271.522766 147.364578,271.373657 144.914337,271.405334 
z"/>
</svg>